<svg id="Layer_1" data-name="Layer 1" xmlns="http://www.w3.org/2000/svg" viewBox="0 0 30.61712 30.14476"><defs><style>.cls-1{fill:#fff;}.cls-2{fill:#297699;}</style></defs><title>wordpress2</title><path class="cls-1" d="M27.75619,9.82842a13.31954,13.31954,0,0,0-7.2027-7.20667,13.33658,13.33658,0,0,0-10.48987,0A13.34368,13.34368,0,0,0,2.857,9.82842a13.33181,13.33181,0,0,0,0,10.48792A13.33194,13.33194,0,0,0,10.06363,27.521a13.31364,13.31364,0,0,0,10.48987,0,13.30784,13.30784,0,0,0,7.2027-7.20465,13.28673,13.28673,0,0,0,0-10.48792ZM5.02609,21.57274A11.80809,11.80809,0,0,1,3.14144,15.0714a12.00318,12.00318,0,0,1,1.06281-4.95062l5.804,15.89685A12.06993,12.06993,0,0,1,5.02609,21.57274ZM15.30661,27.2365a11.66964,11.66964,0,0,1-3.4295-.50574l3.63495-10.59857L19.26156,26.3673a.42105.42105,0,0,0,.079.17383A12.18571,12.18571,0,0,1,15.30661,27.2365ZM16.98574,9.378c.48206-.03162.94824-.07507,1.39075-.1264a.46866.46866,0,0,0,.41095-.29437.49318.49318,0,0,0-.03955-.48993.47024.47024,0,0,0-.45038-.21338L15.05374,8.412c-.79022-.00989-1.857-.06323-3.19244-.15808a.47669.47669,0,0,0-.50964.3161.61161.61161,0,0,0-.02374.29236.44072.44072,0,0,0,.14227.2608.49865.49865,0,0,0,.30817.12842l1.26825.1264,1.89648,5.18768-2.655,7.97308L7.859,9.378c.482-.03162.94824-.07507,1.39075-.1264a.46865.46865,0,0,0,.41089-.29437.49332.49332,0,0,0-.03949-.48993.4704.4704,0,0,0-.45044-.21338L5.92691,8.412c-.07507,0-.1936-.002-.36346-.00793s-.30426-.00787-.41095-.00787A12.1122,12.1122,0,0,1,9.49466,4.38592a12.16893,12.16893,0,0,1,10.2489-.64008,12.20945,12.20945,0,0,1,3.77319,2.35675h-.158a1.88919,1.88919,0,0,0-1.454.64008A2.16771,2.16771,0,0,0,21.32,8.2539a2.05085,2.05085,0,0,0,.03156.37933c.01978.1264.03955.241.06323.33978a1.84014,1.84014,0,0,0,.12646.36548q.09476.21332.14221.33185a2.81835,2.81835,0,0,0,.18964.35559c.09485.15808.162.26868.19757.33191s.11456.18964.22913.37927.1897.31213.22131.36353a6.58175,6.58175,0,0,1,.99561,3.35437,4.5596,4.5596,0,0,1-.03949.60846,6.59442,6.59442,0,0,1-.158.7843c-.079.316-.13831.54718-.18176.69537s-.13434.45831-.27655.93243c-.14227.47607-.23315.78027-.27661.91858L21.38321,22.444Zm8.84235,11.79175a12.15986,12.15986,0,0,1-4.41327,4.4054l3.7179-10.725a13.98817,13.98817,0,0,0,.93243-4.36584,7.80208,7.80208,0,0,0-.09479-1.24847,12.01469,12.01469,0,0,1,1.50134,5.83563A11.81583,11.81583,0,0,1,25.82809,21.16973Z"/><path class="cls-2" d="M15.51205,16.13219,11.8771,26.73076a11.66964,11.66964,0,0,0,3.4295.50574,12.18571,12.18571,0,0,0,4.03394-.69537.42105.42105,0,0,1-.079-.17383Z"/><path class="cls-2" d="M29.20077,17.88988c.01453-.071.01941-.14417.03284-.21539.07239-.38495.1369-.77173.17651-1.16412.04639-.45929.06891-.924.07037-1.39349.00006-.01514.00226-.02985.00226-.045V15.0714a14.296,14.296,0,0,0-.07269-1.43829c-.03772-.373-.10052-.74042-.16791-1.10681-.0166-.09009-.02313-.18237-.0415-.27209a13.84154,13.84154,0,0,0-.84393-2.68658,14.78471,14.78471,0,0,0-1.56-2.775,13.60471,13.60471,0,0,0-1.45856-1.74884A13.742,13.742,0,0,0,23.54269,3.55,14.82746,14.82746,0,0,0,20.8143,2.02123,13.84752,13.84752,0,0,0,18.128,1.18041c-.08038-.01642-.16315-.02222-.24384-.03717C17.50528,1.073,17.125,1.0089,16.739.97033,16.54385.9508,16.34414.952,16.14718.94048c-.2796-.01624-.55731-.04132-.84058-.04132-.24829,0-.49152.02374-.73718.03632-.2312.01178-.4649.012-.69373.035-.36249.03632-.71942.09827-1.07581.16254-.10339.01868-.20911.02661-.312.04761a13.85641,13.85641,0,0,0-2.68512.84064,14.94447,14.94447,0,0,0-2.56714,1.4082,13.03749,13.03749,0,0,0-3.4516,3.41168,14.92952,14.92952,0,0,0-1.52765,2.7265A13.93845,13.93845,0,0,0,1.4172,12.2495c-.041.20032-.06073.4054-.09277.60779-.04089.25793-.09094.51392-.11737.77515a14.3094,14.3094,0,0,0-.07269,1.439v.00049c0,.01459.00208.02875.00214.04327.0014.47034.024.93579.0705,1.39587.02844.28186.08124.55811.12653.83606.02966.18207.04663.36707.08356.54749a13.93069,13.93069,0,0,0,.83936,2.6825A14.87585,14.87585,0,0,0,3.8406,23.37914,13.70026,13.70026,0,0,0,5.279,25.101a13.55871,13.55871,0,0,0,1.8407,1.52747,14.90883,14.90883,0,0,0,2.68317,1.493,13.81978,13.81978,0,0,0,4.07593,1.05286c.186.01868.37634.01721.564.0285.28729.01733.57288.04272.86389.04272.331,0,.65613-.02625.98218-.04852.14844-.01019.29974-.00781.44714-.02258a13.81618,13.81618,0,0,0,4.07837-1.053,14.80111,14.80111,0,0,0,2.8324-1.60468A13.68471,13.68471,0,0,0,25.33816,25.101a13.67369,13.67369,0,0,0,1.40479-1.67694,14.7428,14.7428,0,0,0,1.61377-2.847A13.83815,13.83815,0,0,0,29.20077,17.88988ZM24.872,24.63476A13.66089,13.66089,0,0,1,20.55349,27.521a13.31364,13.31364,0,0,1-10.48987,0A13.33194,13.33194,0,0,1,2.857,20.31634a13.33181,13.33181,0,0,1,0-10.48792,13.34368,13.34368,0,0,1,7.20667-7.20667,13.33658,13.33658,0,0,1,10.48987,0,13.31954,13.31954,0,0,1,7.2027,7.20667,13.28673,13.28673,0,0,1,0,10.48792A13.63455,13.63455,0,0,1,24.872,24.63476Z"/><path class="cls-2" d="M22.86093,17.47558c.14221-.47412.23309-.7843.27655-.93243s.10272-.37933.18176-.69537a6.59442,6.59442,0,0,0,.158-.7843,4.5596,4.5596,0,0,0,.03949-.60846,6.58175,6.58175,0,0,0-.99561-3.35437c-.03162-.05139-.10669-.17389-.22131-.36353s-.19354-.316-.22913-.37927-.10272-.17383-.19757-.33191a2.81835,2.81835,0,0,1-.18964-.35559q-.04742-.11847-.14221-.33185a1.84014,1.84014,0,0,1-.12646-.36548c-.02368-.09875-.04346-.21338-.06323-.33978A2.05085,2.05085,0,0,1,21.32,8.2539a2.16771,2.16771,0,0,1,.58472-1.51123,1.88919,1.88919,0,0,1,1.454-.64008h.158a12.20945,12.20945,0,0,0-3.77319-2.35675,12.16893,12.16893,0,0,0-10.2489.64008A12.1122,12.1122,0,0,0,5.15249,8.39617c.10669,0,.241.002.41095.00787s.28839.00793.36346.00793L9.17068,8.2539a.4704.4704,0,0,1,.45044.21338.49332.49332,0,0,1,.03949.48993.46865.46865,0,0,1-.41089.29437c-.4425.05133-.90875.09479-1.39075.1264l4.42908,13.16077,2.655-7.97308L13.0466,9.378l-1.26825-.1264a.49865.49865,0,0,1-.30817-.12842.44072.44072,0,0,1-.14227-.2608A.61161.61161,0,0,1,11.35165,8.57a.47669.47669,0,0,1,.50964-.3161c1.33545.09485,2.40222.14819,3.19244.15808l3.24377-.15808a.47024.47024,0,0,1,.45038.21338.49318.49318,0,0,1,.03955.48993.46866.46866,0,0,1-.41095.29437c-.4425.05133-.90869.09479-1.39075.1264l4.39746,13.066,1.20111-4.0498C22.62777,18.25585,22.71865,17.95165,22.86093,17.47558Z"/><path class="cls-2" d="M26.06515,10.48424a13.98817,13.98817,0,0,1-.93243,4.36584l-3.7179,10.725a12.15986,12.15986,0,0,0,4.41327-4.4054,11.81583,11.81583,0,0,0,1.64362-6.09833,12.01469,12.01469,0,0,0-1.50134-5.83563A7.80208,7.80208,0,0,1,26.06515,10.48424Z"/><path class="cls-2" d="M3.14144,15.0714a11.80809,11.80809,0,0,0,1.88464,6.50134,12.06993,12.06993,0,0,0,4.98218,4.44489l-5.804-15.89685A12.00318,12.00318,0,0,0,3.14144,15.0714Z"/></svg>