<svg id="Layer_1" data-name="Layer 1" xmlns="http://www.w3.org/2000/svg" viewBox="0 0 30.61712 30.14476"><defs><style>.cls-1{fill:#fff;}.cls-2{fill:#297699;}</style></defs><title>wordpress</title><circle class="cls-1" cx="15.30856" cy="15.07238" r="14.17422"/><path class="cls-2" d="M9.80284,2.02123a14.06847,14.06847,0,0,1,11.01144,0,13.91739,13.91739,0,0,1,7.54246,7.54641,14.01822,14.01822,0,0,1,0,11.00946,13.90545,13.90545,0,0,1-7.54246,7.54444,14.04572,14.04572,0,0,1-11.01144,0A14.21172,14.21172,0,0,1,5.27894,25.101a14.30456,14.30456,0,0,1-3.02252-4.5239,14.06363,14.06363,0,0,1,0-11.00946A13.94133,13.94133,0,0,1,9.80284,2.02123ZM10.06361,27.521a13.31387,13.31387,0,0,0,10.48991,0,13.30782,13.30782,0,0,0,7.20267-7.20465,13.28666,13.28666,0,0,0,0-10.48793,13.31981,13.31981,0,0,0-7.20267-7.20663,13.33637,13.33637,0,0,0-10.48991,0A13.34385,13.34385,0,0,0,2.857,9.82841a13.33155,13.33155,0,0,0,0,10.48793A13.33182,13.33182,0,0,0,10.06361,27.521ZM3.14145,15.07139a12.003,12.003,0,0,1,1.06282-4.9506l5.804,15.89685a12.06982,12.06982,0,0,1-4.98221-4.44488A11.80805,11.80805,0,0,1,3.14145,15.07139ZM23.51676,14.455a4.5583,4.5583,0,0,1-.03951.60845,6.59129,6.59129,0,0,1-.158.78427c-.079.31608-.13829.54721-.18175.69538s-.13433.45832-.27657.93244c-.14224.4761-.23311.78032-.27657.91861L21.38322,22.444,16.98576,9.378c.482-.03161.94824-.07507,1.39075-.12643a.46849.46849,0,0,0,.4109-.29435.49327.49327,0,0,0-.03951-.48992.47016.47016,0,0,0-.45041-.21335l-3.24377.158c-.7902-.00988-1.857-.06322-3.19241-.158a.47674.47674,0,0,0-.50968.31608.61177.61177,0,0,0-.02371.29237.44064.44064,0,0,0,.14224.26077.4986.4986,0,0,0,.30818.12841l1.26827.12643,1.89648,5.18766L12.288,22.53878,7.85895,9.378c.482-.03161.94824-.07507,1.39075-.12643a.46849.46849,0,0,0,.4109-.29435.49327.49327,0,0,0-.03951-.48992.47016.47016,0,0,0-.45041-.21335l-3.24377.158c-.07507,0-.1936-.002-.36349-.0079s-.30423-.0079-.4109-.0079A12.11156,12.11156,0,0,1,9.49466,4.38591a12.16932,12.16932,0,0,1,10.2489-.64006,12.21,12.21,0,0,1,3.77321,2.35677h-.158a1.8891,1.8891,0,0,0-1.454.64006A2.16766,2.16766,0,0,0,21.32,8.25394a2.04842,2.04842,0,0,0,.03161.3793c.01975.12643.03951.241.06322.33979a1.8395,1.8395,0,0,0,.12643.36547q.09482.21335.14224.33188a2.81564,2.81564,0,0,0,.18965.35559c.09482.158.162.26867.19755.33188s.11458.18965.22916.3793.18965.31213.22126.36349A6.582,6.582,0,0,1,23.51676,14.455ZM15.512,16.13223l3.7495,10.23507a.4208.4208,0,0,0,.079.17384,12.18637,12.18637,0,0,1-4.034.69538,11.67,11.67,0,0,1-3.42947-.50573Zm10.4583-6.89647a12.01447,12.01447,0,0,1,1.50138,5.83563,11.816,11.816,0,0,1-1.64362,6.09837,12.16,12.16,0,0,1-4.41327,4.40537l3.71789-10.725a13.98849,13.98849,0,0,0,.93244-4.36586A7.79738,7.79738,0,0,0,25.97034,9.23576Z"/></svg>