<svg version="1" xmlns="http://www.w3.org/2000/svg" width="1984" height="1984" viewBox="0 0 1488 1488" preserveAspectRatio="xMidYMid meet"><metadata>Created by potrace 1.11, written by Peter Selinger 2001-2013</metadata><g fill="#000" stroke="none"><path d="M7340 14843 c-941 -18 -1881 -213 -2733 -567 -2531 -1054 -4291 -3411 -4566 -6116 -218 -2136 463 -4212 1900 -5795 1044 -1150 2436 -1952 3944 -2273 258 -55 387 -76 417 -69 47 12 76 47 138 165 134 252 273 436 515 678 154 155 469 434 490 434 20 0 323 -268 475 -420 237 -236 396 -446 515 -679 30 -59 69 -120 86 -136 27 -27 36 -30 92 -29 113 3 576 104 887 194 1826 529 3395 1755 4364 3410 178 303 395 758 526 1100 257 669 423 1441 470 2180 13 208 13 747 0 945 -113 1707 -768 3270 -1896 4525 -144 160 -484 496 -639 631 -1249 1086 -2800 1718 -4440 1808 -223 13 -386 17 -545 14z m470 -673 c1542 -88 2958 -665 4105 -1674 136 -119 432 -414 564 -561 894 -997 1469 -2232 1661 -3565 53 -371 64 -536 64 -975 0 -429 -10 -598 -60 -947 -168 -1199 -661 -2345 -1414 -3288 -528 -661 -1167 -1214 -1895 -1639 -208 -122 -751 -391 -789 -391 -3 0 -6 1036 -6 2303 0 2504 -3 2352 54 2465 53 103 139 153 277 160 55 3 101 0 125 -8 98 -32 166 -111 209 -240 13 -41 72 -339 130 -665 208 -1160 275 -1521 301 -1600 91 -288 270 -469 515 -521 88 -19 283 -14 369 10 324 90 514 383 497 771 -4 91 -29 255 -105 685 -56 311 -157 885 -226 1275 -286 1624 -326 1799 -477 2115 -89 186 -173 306 -308 441 -204 203 -430 330 -719 404 -205 52 -274 57 -760 62 -250 3 -469 2 -488 -1 -54 -11 -54 -38 -1 -200 92 -281 127 -479 127 -724 0 -230 -31 -408 -110 -637 -125 -361 -356 -707 -749 -1118 -151 -158 -181 -202 -181 -268 0 -72 35 -123 194 -288 301 -311 482 -554 619 -826 145 -292 212 -550 224 -865 9 -253 -22 -465 -104 -714 -115 -345 -322 -668 -708 -1101 -161 -181 -201 -235 -215 -285 -20 -76 11 -125 214 -339 172 -179 247 -265 328 -374 57 -78 128 -191 128 -205 0 -5 -71 -25 -159 -47 l-158 -38 -31 21 c-16 12 -62 67 -101 122 -143 200 -310 382 -597 652 l-205 192 224 225 c283 286 402 412 521 552 314 367 484 750 515 1159 23 308 -32 591 -170 880 -151 314 -313 513 -873 1070 l-195 194 277 281 c153 154 318 325 366 380 336 378 540 749 613 1110 28 139 25 453 -6 595 -45 213 -145 462 -212 528 -42 43 -77 60 -142 72 -34 7 -456 4 -1237 -8 -652 -9 -1279 -16 -1395 -14 -130 2 -224 -1 -247 -8 -20 -6 -51 -27 -69 -47 -71 -81 -175 -359 -209 -557 -23 -133 -27 -354 -9 -483 34 -248 134 -509 296 -772 144 -233 277 -388 655 -762 l299 -296 -178 -165 c-224 -209 -557 -547 -646 -658 -541 -673 -610 -1436 -192 -2145 127 -217 295 -412 735 -858 l265 -269 -140 -130 c-323 -302 -522 -517 -673 -728 -38 -52 -83 -105 -100 -116 l-32 -22 -140 35 -140 36 31 56 c85 151 209 305 429 535 202 212 225 244 225 312 0 67 -26 104 -231 334 -288 324 -447 547 -579 815 -134 272 -193 487 -216 777 -30 392 66 805 272 1171 136 242 303 456 571 733 81 84 156 170 167 193 24 47 27 117 7 165 -7 18 -81 104 -164 192 -172 183 -262 285 -349 401 -359 471 -532 960 -509 1443 10 218 45 394 126 635 49 145 51 181 13 196 -19 7 -174 9 -478 6 -459 -5 -540 -10 -730 -52 -503 -111 -894 -434 -1104 -913 -127 -290 -171 -490 -437 -1997 -69 -390 -170 -964 -225 -1275 -126 -707 -122 -680 -116 -830 13 -301 144 -524 372 -635 102 -50 190 -68 330 -69 137 -1 199 11 300 60 173 83 297 237 371 461 24 76 122 593 304 1618 106 600 113 629 156 720 51 109 103 155 204 181 155 39 319 -28 386 -158 57 -111 54 26 54 -2485 0 -1272 -2 -2313 -5 -2313 -12 0 -258 111 -410 185 -1059 516 -1997 1334 -2652 2315 -600 898 -970 1890 -1102 2950 -40 319 -46 428 -46 835 1 406 7 521 46 835 160 1287 688 2505 1519 3500 1246 1492 3064 2386 4980 2449 372 12 404 12 590 1z m584 -6020 c151 -22 206 -78 206 -212 0 -80 -28 -247 -56 -330 l-16 -48 -926 0 c-512 0 -958 5 -997 10 -152 20 -240 69 -266 147 -24 72 -13 184 32 355 l21 78 887 3 c487 1 922 3 966 4 44 2 111 -2 149 -7z m-314 -1257 c0 -22 -218 -261 -335 -366 -107 -97 -271 -227 -286 -227 -17 0 -214 166 -332 279 -126 121 -287 296 -287 312 0 5 257 9 620 9 341 0 620 -3 620 -7z m-258 -1830 c81 -81 186 -193 234 -248 l86 -100 -677 -3 c-373 -1 -681 1 -684 4 -3 3 146 156 332 340 l338 333 112 -88 c62 -49 178 -156 259 -238z m705 -1016 c21 -13 43 -142 43 -250 0 -163 -27 -224 -120 -273 -33 -18 -82 -19 -1062 -22 l-1026 -2 -11 49 c-6 27 -16 102 -22 166 -13 129 -5 191 32 251 25 41 94 75 168 83 81 9 1984 7 1998 -2z m-437 -1202 c0 -2 -34 -46 -77 -97 -100 -122 -353 -373 -474 -471 l-97 -77 -315 317 -316 318 237 5 c326 8 1042 11 1042 5z" transform="translate(0.000000,1488.000000) scale(0.100000,-0.100000)"/><path d="M7285 13634 c-455 -46 -823 -185 -1166 -440 -117 -87 -289 -250 -385 -366 -252 -301 -424 -685 -491 -1093 -24 -150 -24 -515 0 -664 64 -393 220 -748 467 -1062 141 -179 366 -379 575 -509 116 -72 340 -176 472 -219 253 -83 493 -117 763 -108 345 12 623 77 907 212 782 371 1283 1159 1283 2020 0 1120 -844 2074 -1960 2215 -91 11 -399 21 -465 14z" transform="translate(0.000000,1488.000000) scale(0.100000,-0.100000)"/></g></svg>