<?xml version="1.0" encoding="utf-8"?>
<!-- Generator: Adobe Illustrator 23.0.6, SVG Export Plug-In . SVG Version: 6.00 Build 0)  -->
<svg version="1.1" id="Layer_1" xmlns="http://www.w3.org/2000/svg" xmlns:xlink="http://www.w3.org/1999/xlink" x="0px" y="0px"
	 viewBox="0 0 283.46 283.46" style="enable-background:new 0 0 283.46 283.46;" xml:space="preserve">
<style type="text/css">
	.st0{fill:#010101;}
	.st1{fill:none;stroke:#3DBB9B;stroke-width:3;stroke-miterlimit:10;}
	.st2{fill:none;stroke:#8B7AB8;stroke-width:3;stroke-miterlimit:10;}
	.st3{fill:none;stroke:#39AFDB;stroke-width:3;stroke-miterlimit:10;}
</style>
<path class="st0" d="M212.3,131.65c13.92,0,25.2-11.28,25.2-25.2s-11.28-25.2-25.2-25.2s-25.2,11.28-25.2,25.2
	S198.37,131.65,212.3,131.65z M212.3,91.33c8.35,0,15.12,6.77,15.12,15.12s-6.77,15.12-15.12,15.12s-15.12-6.77-15.12-15.12
	S203.95,91.33,212.3,91.33z M141.73,141.73c19.5,0,35.28-15.78,35.28-35.28s-15.78-35.28-35.28-35.28s-35.28,15.78-35.28,35.28
	S122.23,141.73,141.73,141.73z M141.73,81.25c13.89,0,25.2,11.31,25.2,25.2s-11.31,25.2-25.2,25.2s-25.2-11.31-25.2-25.2
	S127.84,81.25,141.73,81.25z M218.6,141.73H206c-4.79,0-9.23,1.51-12.95,4.06c2.96,2.02,5.64,4.38,8,7.06
	c1.54-0.66,3.21-1.04,4.95-1.04h12.6c7.62,0,13.86,6.77,13.86,15.12c0,2.77,2.27,5.04,5.04,5.04s5.04-2.27,5.04-5.04
	C242.54,153.04,231.8,141.73,218.6,141.73z M71.17,131.65c13.92,0,25.2-11.28,25.2-25.2s-11.28-25.2-25.2-25.2
	s-25.2,11.28-25.2,25.2S57.24,131.65,71.17,131.65z M71.17,91.33c8.35,0,15.12,6.77,15.12,15.12s-6.77,15.12-15.12,15.12
	s-15.12-6.77-15.12-15.12S62.82,91.33,71.17,91.33z M166.97,148.03c-10.52,0-13.14,3.78-25.23,3.78s-14.71-3.78-25.23-3.78
	c-11.44,0-22.56,5.1-29.08,14.77c-3.91,5.8-6.17,12.76-6.17,20.26v14.11c0,8.35,6.77,15.12,15.12,15.12h90.73
	c8.35,0,15.12-6.77,15.12-15.12v-14.11c0-7.5-2.27-14.46-6.17-20.26C189.52,153.14,178.4,148.03,166.97,148.03L166.97,148.03z
	 M192.14,197.18c0,2.77-2.27,5.04-5.04,5.04H96.37c-2.77,0-5.04-2.27-5.04-5.04v-14.11c0-5.23,1.54-10.3,4.44-14.62
	c4.35-6.46,12.1-10.33,20.7-10.33c8.63,0,11.72,3.78,25.26,3.78s16.63-3.78,25.23-3.78c8.6,0,16.35,3.87,20.7,10.33
	c2.9,4.32,4.44,9.39,4.44,14.62v14.11H192.14z M90.42,145.8c-3.75-2.55-8.19-4.06-12.95-4.06h-12.6c-13.2,0-23.94,11.31-23.94,25.2
	c0,2.77,2.27,5.04,5.04,5.04c2.77,0,5.04-2.27,5.04-5.04c0-8.35,6.24-15.12,13.86-15.12h12.6c1.73,0,3.4,0.38,4.95,1.04
	C84.78,150.17,87.49,147.81,90.42,145.8L90.42,145.8z"/>
<ellipse class="st1" cx="143.02" cy="142.86" rx="130.22" ry="127.56"/>
</svg>
