<?xml version="1.0" encoding="utf-8"?>
<!-- Generator: Adobe Illustrator 23.0.6, SVG Export Plug-In . SVG Version: 6.00 Build 0)  -->
<svg version="1.1" id="Layer_1" xmlns="http://www.w3.org/2000/svg" xmlns:xlink="http://www.w3.org/1999/xlink" x="0px" y="0px"
	 viewBox="0 0 283.46 283.46" style="enable-background:new 0 0 283.46 283.46;" xml:space="preserve">
<style type="text/css">
	.st0{fill:#010101;}
	.st1{fill:none;stroke:#3DBB9B;stroke-width:3;stroke-miterlimit:10;}
	.st2{fill:none;stroke:#39AFDB;stroke-width:3;stroke-miterlimit:10;}
	.st3{fill:none;stroke:#8B7AB8;stroke-width:3;stroke-miterlimit:10;}
</style>
<g>
	<path class="st0" d="M215.11,154H172.6v-14.82c0-8.25,6.58-15.11,14.85-15.19c8.35-0.09,15.16,6.67,15.16,15l0,0
		c0,2.08,1.67,3.75,3.75,3.75s3.75-1.67,3.75-3.75l0,0.22c0-12.44-10-22.69-22.46-22.72c-12.42-0.03-22.55,10.08-22.55,22.5v15h-5
		c-4.14,0-7.5,3.36-7.5,7.5v27.51c0,4.14,3.36,7.5,7.5,7.5h55.01c4.14,0,7.5-3.36,7.5-7.5V161.5
		C222.61,157.36,219.25,154,215.11,154z M215.11,189.01H160.1V161.5h55.01V189.01z M187.6,184.01c-2.42,0-4.38-1.95-4.38-4.38v-8.75
		c0-2.42,1.95-4.38,4.38-4.38c2.42,0,4.38,1.95,4.38,4.38v8.75C191.98,182.05,190.03,184.01,187.6,184.01z"/>
	<path class="st0" d="M145.77,108.87c0.02,0,0.03,0,0.05,0l46.59-0.03v-9.59c-0.01-4.37-1.74-8.56-4.83-11.65l-28.74-28.74
		c-3.08-3.09-7.26-4.82-11.62-4.83H77.3c-9.08,0.03-16.43,7.39-16.44,16.48v142.49c0,9.08,7.36,16.44,16.44,16.44h80.86v0h17.81
		c0.16,0,0.31-0.02,0.47-0.02c0.31-0.01,0.62-0.02,0.93-0.05c0.31-0.03,0.61-0.07,0.91-0.11c0.15-0.02,0.29-0.04,0.44-0.07
		c0.36-0.06,0.71-0.13,1.06-0.21c0.02,0,0.03-0.01,0.05-0.01c7.22-1.74,12.59-8.22,12.59-15.97v-8.44h-10.96v8.44
		c0,1.52-0.62,2.89-1.62,3.89c-0.01,0-0.01,0-0.02,0c-1.02,1.02-2.4,1.59-3.85,1.59H77.3c-3.03,0-5.48-2.45-5.48-5.48V70.5
		c0-3.03,2.45-5.48,5.48-5.48h60.3v35.63C137.58,105.18,141.24,108.86,145.77,108.87z M148.56,65.19c0.96,0.24,1.84,0.74,2.54,1.44
		l28.74,28.74c0.7,0.7,1.2,1.57,1.44,2.53h-32.72V65.19z"/>
</g>
<ellipse class="st2" cx="141.73" cy="143.78" rx="130.22" ry="127.56"/>
</svg>
