<?xml version="1.0" encoding="utf-8"?>
<!-- Generator: Adobe Illustrator 23.0.6, SVG Export Plug-In . SVG Version: 6.00 Build 0)  -->
<svg version="1.1" id="Layer_1" xmlns="http://www.w3.org/2000/svg" xmlns:xlink="http://www.w3.org/1999/xlink" x="0px" y="0px"
	 viewBox="0 0 283.46 283.46" style="enable-background:new 0 0 283.46 283.46;" xml:space="preserve">
<style type="text/css">
	.st0{fill:#010101;}
	.st1{fill:none;stroke:#3DBB9B;stroke-width:3;stroke-miterlimit:10;}
	.st2{fill:none;stroke:#39AFDB;stroke-width:3;stroke-miterlimit:10;}
	.st3{fill:none;stroke:#8B7AB8;stroke-width:3;stroke-miterlimit:10;}
</style>
<g>
	<path class="st0" d="M228.27,161.11c-6.31-5.67-15.82-5.64-22.38-0.38l-19.72,15.79c-0.61,0.48-1.34,0.74-2.15,0.74h-13.32
		c1.47-3.07,2.08-6.63,1.54-10.34c-1.28-8.93-9.48-15.27-18.51-15.27h-46.17c-6.66,0-13.13,2.15-18.44,6.15l-12.3,9.22H52.08
		c-1.41,0-2.56,1.15-2.56,2.56v5.12c0,1.41,1.15,2.56,2.56,2.56h28.18l15.02-11.27c3.55-2.66,7.88-4.1,12.3-4.1h46.97
		c4.26,0,7.68,3.43,7.68,7.68c0,4.26-3.43,7.68-7.68,7.68h-28.18c-2.82,0-5.12,2.31-5.12,5.12c0,2.82,2.31,5.12,5.12,5.12h57.7
		c3.11,0,6.12-1.06,8.55-2.98l19.72-15.75c2.47-1.95,6.4-2.43,9.09,0c3.23,2.91,2.98,7.84-0.29,10.44l-32.27,25.84
		c-2.43,1.95-5.44,2.98-8.55,2.98H52.08c-1.41,0-2.56,1.15-2.56,2.56v5.12c0,1.41,1.15,2.56,2.56,2.56h128.24
		c5.44,0,10.69-1.86,14.92-5.25l32.31-25.84c3.91-3.14,6.24-7.81,6.4-12.81S232.02,164.51,228.27,161.11L228.27,161.11z"/>
	<path class="st0" d="M107.85,138.85c-0.04,0.67,0.48,1.24,1.17,1.24h2.36c0.61,0,1.13-0.45,1.17-1.07c0.06-0.82,0.2-2.06,0.51-3.61
		h45.73c0.32,1.57,0.48,2.82,0.54,3.63c0.06,0.6,0.56,1.05,1.17,1.05h2.36c0.69,0,1.21-0.57,1.17-1.24
		c-0.34-4.61-2.71-20.77-19.34-33.34c-1.36,0.92-2.81,1.81-4.33,2.68c3.8,2.69,6.82,5.59,9.24,8.51h-27.46
		c3.53-4.21,8.34-8.41,14.92-11.99c23.58-12.84,26.58-33.02,26.96-38.27c0.04-0.67-0.48-1.24-1.17-1.24h-2.36
		c-0.61,0-1.13,0.45-1.17,1.07c-0.06,0.82-0.2,2.08-0.51,3.63h-45.73c-0.32-1.57-0.47-2.82-0.54-3.63c-0.06-0.6-0.56-1.05-1.17-1.05
		l-2.36-0.01c-0.67,0-1.21,0.57-1.17,1.24c0.37,4.97,3.17,23.33,23.55,36.17C110.97,115.46,108.22,133.88,107.85,138.85z
		 M157.59,74.56c-0.92,2.81-2.33,6.03-4.45,9.36h-34.32c-2.11-3.35-3.53-6.55-4.46-9.36H157.59z M135.94,99.92
		c-5.95-3.41-10.42-7.34-13.72-11.32h27.52C146.41,92.57,141.92,96.49,135.94,99.92L135.94,99.92z M114.29,130.73
		c0.92-2.81,2.33-6.01,4.45-9.36h34.3c2.12,3.35,3.54,6.57,4.48,9.36H114.29z"/>
</g>
<ellipse class="st3" cx="141.73" cy="141.73" rx="130.22" ry="127.56"/>
</svg>
