<svg id="Layer_1" data-name="Layer 1" xmlns="http://www.w3.org/2000/svg" viewBox="0 0 45.56406 30.49658"><defs><style>.cls-1{fill:#fff;}.cls-2{fill:#009789;}.cls-3{fill:#00988a;}</style></defs><title>contactus_email</title><path class="cls-1" d="M39.30732,3.52116H6.34071c-.03247.33337.14789.38452.2644.4798C11.59663,8.08384,16.672,12.06016,21.7859,15.98845a1.022,1.022,0,0,0,1.50024-.05408Q29.337,11.20622,35.42128,6.52073C36.68092,5.54551,37.94331,4.57389,39.30732,3.52116Z"/><path class="cls-1" d="M3.53053,25.48912c.2702.11224.46252-.18091.65833-.32483,4.17529-3.06885,8.33466-6.15955,12.52283-9.21075.61121-.44531.47272-.64484-.02753-1.01868-1.245-.93042-2.45953-1.90173-3.67938-2.86548C9.858,9.58317,6.715,7.09227,3.42775,4.49028c-.03131.31689-.05438.44128-.05438.56567q-.00284,9.86893.00476,19.73792C3.37843,25.03007,3.23164,25.365,3.53053,25.48912Z"/><path class="cls-1" d="M42.12648,4.47544c-.15.02332-.2262.01233-.2691.045C37.267,8.01512,32.6667,11.49681,28.16523,15.10673c-.46851.37567-.31335.54456.08539.82819,2.93176,2.08545,5.84717,4.19391,8.77124,6.29016,1.64984,1.1828,3.30634,2.35626,5.14929,3.66882C42.12861,18.59141,42.289,11.54087,42.12648,4.47544Z"/><path class="cls-1" d="M20.86635,18.28874a9.3109,9.3109,0,0,1-.97815-.79828c-.43182-.43317-.80145-.37268-1.26465-.02844q-6.1257,4.55209-12.2677,9.08215c-.18225.13519-.50281.18671-.46454.54254H39.42976l.08044-.19611q-6.03278-4.34354-12.06635-8.686c-1.71448-1.23218-1.71844-1.22662-3.40771.05865C22.47963,19.44761,22.39265,19.45018,20.86635,18.28874Z"/><path class="cls-2" d="M43.16945,1.19517a1.76413,1.76413,0,0,0-.95477-.10663Q22.88908,1.08479,3.56343,1.08738c-1.75537.00024-2.51361.74457-2.514,2.45935Q1.04716,15.2783,1.04994,27.01c.00049,1.66229.76459,2.41058,2.44507,2.41077q9.63849.0011,19.277.00024,9.73581,0,19.47162-.00134a2.0812,2.0812,0,0,0,2.2619-2.203q.00476-11.975.01038-23.95007A2.29651,2.29651,0,0,0,43.16945,1.19517ZM3.37336,5.05595c0-.12439.02307-.24878.05438-.56567,3.28723,2.602,6.43024,5.0929,9.577,7.5791,1.21985.96375,2.43439,1.93506,3.67938,2.86548.50024.37384.63873.57336.02753,1.01868-4.18817,3.05121-8.34753,6.14191-12.52283,9.21075-.1958.14392-.38812.43707-.65833.32483-.29889-.12415-.1521-.459-.1524-.69525Q3.36567,14.92485,3.37336,5.05595ZM23.28615,15.93437a1.022,1.022,0,0,1-1.50024.05408C16.672,12.06016,11.59663,8.08384,6.60512,4.001c-.11652-.09528-.29687-.14642-.2644-.4798H39.30732c-1.364,1.05273-2.6264,2.02435-3.886,2.99957Q29.34913,11.22178,23.28615,15.93437Zm4.15771,2.27026q6.03653,4.33832,12.06635,8.686l-.08044.19611H5.89131c-.03827-.35583.28229-.40735.46454-.54254Q12.486,21.99812,18.62355,17.462c.4632-.34424.83282-.40472,1.26465.02844a9.3109,9.3109,0,0,0,.97815.79828c1.52631,1.16144,1.61328,1.15887,3.1698-.02545C25.72542,16.978,25.72938,16.97245,27.44386,18.20463ZM42.17116,25.8939c-1.843-1.31256-3.49945-2.486-5.14929-3.66882-2.92407-2.09625-5.83948-4.20471-8.77124-6.29016-.39874-.28363-.55389-.45251-.08539-.82819C32.6667,11.49681,37.267,8.01512,41.85737,4.52043c.04291-.03265.11908-.02167.2691-.045C42.289,11.54087,42.12861,18.59141,42.17116,25.8939Z"/><path class="cls-3" d="M27.63991,29.92112l-24.145-.00049c-1.95361,0-2.94434-.979-2.94482-2.91064Q.5464,15.27806.54957,3.54661c0-1.99121.98584-2.959,3.01367-2.959Q22.88966.584,42.21461.5886l.18994-.00635a1.71444,1.71444,0,0,1,1.02051.18311,2.82416,2.82416,0,0,1,1.59082,2.502q-.01611,8.14233-.00977,16.28516l-.00049,7.66406a2.58852,2.58852,0,0,1-2.76221,2.70313Zm-4.86816-1,19.47168-.00146a1.59362,1.59362,0,0,0,1.76221-1.70312l.00049-7.66406q-.00073-8.1438.00977-16.28711a1.78343,1.78343,0,0,0-1.103-1.64111.94136.94136,0,0,0-.46143-.043c-.0791.00391-.15869.00732-.23682.00732q-19.325-.00366-38.65137-.001c-1.48682,0-2.01367.5127-2.01367,1.959Q1.54738,15.27855,1.55006,27.01c.00049,1.375.5459,1.91064,1.94482,1.91064Zm16.6582-1.33447H5.44264l-.04834-.44629a.927.927,0,0,1,.57715-.94873l5.43115-4.00439q3.46362-2.56055,6.92236-5.12646a1.3307,1.3307,0,0,1,1.917.07666,7.11586,7.11586,0,0,0,.75928.62646l.168.127c1.26563.9624,1.26563.9624,2.56445-.02539,1.8584-1.415,2.11963-1.41895,4.00244-.06689q4.57544,3.28857,9.147,6.584l3.24023,2.334-.32373.78857Zm-.04687-.51953.04688.01953ZM7.13893,26.58665H38.23219L36.2986,25.19407q-4.57251-3.2937-9.14648-6.583c-1.41357-1.01611-1.41357-1.01514-2.80811.04639-1.74951,1.33154-2.06689,1.33252-3.78027.0293l-.16406-.12354a7.96514,7.96514,0,0,1-.86572-.71973c-.18848-.18848-.26367-.23828-.6123.02q-3.45776,2.56934-6.92432,5.12793ZM42.677,26.8679,40.12428,25.051c-1.1709-.832-2.28369-1.62354-3.394-2.41943L33.761,20.49827q-2.89673-2.083-5.80029-4.15625a1.107,1.107,0,0,1-.584-.81689,1.05081,1.05081,0,0,1,.47559-.80859C31.9358,11.44212,36.16774,8.2219,40.26,5.10716l1.29443-.98486a.70119.70119,0,0,1,.38818-.12891l.67041-.1001.01318.57031c.09961,4.3374.07861,8.56982.05615,13.05029-.01367,2.76514-.02783,5.55225-.01123,8.377ZM28.48756,15.489l.05273.03809q2.90991,2.06982,5.80469,4.15918l2.96826,2.13281c1.10889.79492,2.2207,1.58545,3.39063,2.417l.96289.68506c-.00879-2.49512.00342-4.9624.01563-7.41211.021-4.189.041-8.16016-.03857-12.19824l-.77783.59229C36.78151,9.011,32.55787,12.22532,28.48756,15.489ZM3.65211,26.01634a.809.809,0,0,1-.31348-.06592.88815.88815,0,0,1-.47314-1.03857.95164.95164,0,0,0,.0127-.11719Q2.86574,14.92527,2.8733,5.05589A2.92813,2.92813,0,0,1,2.90016,4.716L3.02174,3.531,13.888,12.1306c1.02441.811,2.04932,1.62207,3.0957,2.40381a1.23371,1.23371,0,0,1,.6333.92139,1.1931,1.1931,0,0,1-.61084.90186q-4.04077,2.9436-8.05762,5.92041-2.231,1.64575-4.46387,3.28906a1.29869,1.29869,0,0,0-.09912.0874A1.11887,1.11887,0,0,1,3.65211,26.01634ZM3.8733,5.48069q-.00293,9.646.00488,19.2915l.01416-.01074q2.23315-1.64136,4.4624-3.28809,4.02539-2.97,8.0625-5.92432c.05078-.03662.09033-.06787.12061-.09375-.03711-.03125-.08643-.07031-.15283-.12012-1.05371-.78711-2.08594-1.604-3.11768-2.42041Zm18.63086,11.312a1.67974,1.67974,0,0,1-1.02295-.40771C15.58912,11.85862,10.76149,8.04661,6.28883,4.38841a.90991.90991,0,0,1-.4458-.915l.04346-.45215H40.77369l-7.709,5.95557q-4.7417,3.6687-9.47119,7.35156A1.79442,1.79442,0,0,1,22.50416,16.79271ZM7.42018,4.02122c4.3252,3.52783,9.00439,7.21826,14.67041,11.5708.3584.27637.47559.271.88721-.05176q4.72632-3.69214,9.47461-7.35449l5.38818-4.16455Z"/></svg>