<svg id="Layer_1" data-name="Layer 1" xmlns="http://www.w3.org/2000/svg" viewBox="0 0 357.04079 355.81778"><defs><style>.cls-1{fill:#fff;}.cls-2{fill:#84c442;}.cls-3{fill:#377fc1;}.cls-4{fill:none;stroke:#231f20;stroke-miterlimit:10;stroke-width:0.25px;}</style></defs><title>pgp-uk-logo</title><path class="cls-1" d="M197.93467,246.83939c-.05115-.05292-.09814-.10669-.1496-.15961-5.01959-5.94763-10.02667-11.45337-16.41193-15.98907l-16.42419,16.14868Z" transform="translate(-2.46015 -3.67849)"/><path class="cls-1" d="M196.59763,194.44615c-9.78882.00006-19.57837.00006-30.29272.00006A88.374,88.374,0,0,0,181.48246,208.974,74.71506,74.71506,0,0,0,196.59763,194.44615Z" transform="translate(-2.46015 -3.67849)"/><path class="cls-1" d="M199.3115,164.40331c-14.47162.56439-28.98346.09717-43.478.07428l.174-.43494-.174.43475c-3.47992,11.52911-1.71918,14.05133,9.7785,14.06445q20.69586.02353,41.3916.07666a19.08194,19.08194,0,0,0,.91827-2.693C209.41075,167.9287,210.54392,163.9652,199.3115,164.40331Z" transform="translate(-2.46015 -3.67849)"/><path class="cls-1" d="M155.18869,276.03458c15.33392-.02905,30.85614-.29334,46.18409-.00318,5.10547.09668,6.82051-2.01068,6.82857-6.55514.00419-2.36116.41759-3.20536-.99041-6.77175-15.20306.02991-30.44528.49791-45.63168.0111-6.53882-.20959-7.94177,2.554-7.18829,7.96423a21.55473,21.55473,0,0,0,.58032,4.4391" transform="translate(-2.46015 -3.67849)"/><path class="cls-1" d="M180.87439,307.1837c.02747.03876.05969.07227.0874.11078a86.50336,86.50336,0,0,0,15.6795-15.53571H165.80811" transform="translate(-2.46015 -3.67849)"/><path class="cls-1" d="M213.313,339.69249a5.54071,5.54071,0,0,0,2.36829,2.16284q3.9006-.86,7.72675-1.91174c-2.825-5.40161-6.90491-9.81787-11.114-14.14819-7.07587-7.27972-6.89362-7.15643-.27917-14.46826,9.82428-10.86017,18.33881-22.40228,19.6767-37.82513,1.75342-20.21234-8.23114-35.13806-21.62341-48.34918-4.23181-4.17462-4.2403-6.31091-.00482-10.49878,17.447-17.25085,27.77844-36.89288,18.30328-62.18414-.65393-1.74567-1.3407-3.437,1.43329-3.42194,12.78278.06885,25.83423-1.46021,37.75183,4.89209,13.4787,7.18439,18.51386,20.03552,21.16754,33.85181,4.8822,25.41943,9.05164,50.97491,13.70306,76.43994,2.17706,11.91888-2.93567,21.43652-12.92273,23.19373-10.81543,1.90289-18.49341-4.10382-20.74414-16.36237q-4.31076-23.47824-8.47186-46.98376c-.94885-5.35217-2.86841-10.12616-9.24854-9.60706-6.30341.51294-7.754,5.45551-7.74878,10.91882q.05173,53.82953.13452,107.65906A163.01055,163.01055,0,0,0,343.42259,182.70208c0-89.9397-72.04443-162.7287-161.95306-162.85535C91.55894,19.97344,18.4434,92.896,18.4434,182.83586A162.84827,162.84827,0,0,0,119.7203,333.59527c.04724-36.11023.10042-72.09388.13509-108.20411.00525-5.46332-1.44531-10.40588-7.74872-10.91882-6.38013-.5191-8.29968,4.25488-9.24854,9.60706q-4.167,23.50415-8.47186,46.98376c-2.25073,12.25854-9.92877,18.26526-20.74414,16.36237-9.98712-1.7572-15.09979-11.27484-12.92273-23.19373,4.65137-25.465,8.8208-51.02051,13.70306-76.43994,2.65369-13.81628,7.68884-26.66742,21.16754-33.85181,11.9176-6.35229,24.96906-4.82324,37.75183-4.89209,2.774-.015,2.08722,1.67627,1.43323,3.42194-9.4751,25.29126.85632,44.93329,18.30334,62.18414,4.23547,4.18787,4.227,6.32416-.00482,10.49878-13.39233,13.21112-23.37683,28.13684-21.62347,48.34918,1.338,15.42285,9.85248,26.965,19.67676,37.82513,6.61444,7.31183,6.79669,7.18854-.27917,14.46826-4.32007,4.4444-8.46856,8.88126-11.2987,14.47965,2.20923.58649,4.39068,1.21908,6.63568,1.71408a5.54071,5.54071,0,0,0,2.36829-2.16284c5.5567-8.28516,13.02087-14.79877,20.19916-21.57422l.08746-.07794c-.042-.02771-.08228-.05737-.12439-.085-5.94128-6.15863-12.17517-12.06378-17.76929-18.52307-17.295-19.96991-16.80682-43.6673,1.12885-62.99445,5.33484-5.74872,11.384-11.49835,17.23065-16.76916-7.59637-7.85114-16.07037-14.91766-22.09894-24.18146-8.58105-13.18622-11.31433-26.96216-4.34637-41.87384,1.66638-3.566,2.11139-4.49524,7.53241-4.261,0,0,7.56165.18469,11.358.20123l51.72638-.819c3.62433.175,5.381,1.27338,6.91736,4.57269,8.75079,18.7926,2.69281,34.66107-9.56879,49.166-5.1969,6.14771-11.16956,11.63965-16.78979,17.42963-.10217.0885-.1936.16748-.29346.25391,5.49292,5.60175,10.71436,10.6662,16.04907,16.41479,17.93567,19.32715,18.42383,43.02454,1.12885,62.99445-5.583,6.44641-11.8031,12.34106-17.73364,18.48645C200.34251,324.9373,207.775,331.43517,213.313,339.69249Zm-31.60944-199.768a53.642,53.642,0,1,1,53.92578-53.64124A53.78405,53.78405,0,0,1,181.70359,139.92449Z" transform="translate(-2.46015 -3.67849)"/><path class="cls-2" d="M119.70827,334.07836q.07115-54.35337.13576-108.70674c.00525-5.4633-1.44534-10.40591-7.74876-10.91882-6.38013-.5191-8.29968,4.25489-9.24853,9.607q-4.167,23.50414-8.47185,46.98376c-2.25075,12.25858-9.92874,18.2653-20.74414,16.36237-9.98709-1.7572-15.09981-11.2748-12.92273-23.1937,4.65139-25.465,8.82084-51.02051,13.70309-76.44,2.65366-13.81628,7.68883-26.66738,21.16751-33.85179,11.91762-6.35232,24.96908-4.82324,37.75186-4.89213,2.774-.015,2.08723,1.67632,1.43324,3.422-9.47512,25.29125.8563,44.93326,18.30334,62.18415,4.23547,4.18786,4.227,6.32417-.00485,10.49875-13.3923,13.21115-23.37684,28.13687-21.62344,48.34918,1.33791,15.42288,9.85246,26.965,19.67672,37.82514,6.61444,7.31183,6.79671,7.18858-.27916,14.46827-4.32669,4.45133-8.52789,8.98482-11.35825,14.59515C132.3503,339.96022,126.09218,336.82175,119.70827,334.07836Z" transform="translate(-2.46015 -3.67849)"/><path class="cls-3" d="M243.44386,334.09041q-.07115-54.35337-.13576-108.70674c-.00525-5.4633,1.44534-10.40591,7.74876-10.91882,6.38013-.5191,8.29968,4.25489,9.24853,9.607q4.167,23.50414,8.47185,46.98376c2.25075,12.25858,9.92874,18.2653,20.74414,16.36237,9.98709-1.7572,15.09981-11.2748,12.92273-23.1937-4.65139-25.465-8.82084-51.02051-13.70309-76.44-2.65366-13.81628-7.68883-26.66738-21.16751-33.85179-11.91762-6.35232-24.96908-4.82324-37.75186-4.89213-2.774-.015-2.08723,1.67632-1.43324,3.422,9.47512,25.29125-.8563,44.93326-18.30334,62.18415-4.23547,4.18786-4.227,6.32417.00485,10.49875,13.3923,13.21115,23.37684,28.13687,21.62344,48.34918-1.33791,15.42288-9.85246,26.965-19.67672,37.82514-6.61444,7.31183-6.79671,7.18858.27916,14.46827,4.32669,4.45133,8.52789,8.98482,11.35825,14.59515C230.80183,339.97226,237.06,336.83379,243.44386,334.09041Z" transform="translate(-2.46015 -3.67849)"/><path class="cls-3" d="M161.76547,149.6844l-5.91694,14.79006c-3.47991,11.52908-1.71916,14.05132,9.77854,14.06441q20.6958.02355,41.39158.07666a36.02377,36.02377,0,0,1-10.40526,15.82766c-9.78908.00007-19.57889.00007-30.2935.00007a88.37325,88.37325,0,0,0,15.17758,14.52781q-6.0887,5.41421-12.177,10.82847c-7.59638-7.85115-16.07037-14.91768-22.09893-24.1815-8.58109-13.18616-11.31436-26.96213-4.34637-41.87384,1.66633-3.566,2.11138-4.4952,7.53237-4.261C150.40749,149.48314,157.96913,149.66784,161.76547,149.6844Z" transform="translate(-2.46015 -3.67849)"/><path class="cls-2" d="M181.35112,230.63338c5.09173-4.41461.34329,0,12.72624-10.72527,5.62024-5.79,11.5929-11.28192,16.78979-17.42963,12.2616-14.50494,18.31958-30.37341,9.56879-49.166-1.53638-3.29932-3.293-4.39764-6.91736-4.57269l-51.72638.819c-5.36243,13.20911,0,0-5.91693,14.79022,14.49451.02289,29.00635.49011,43.478-.07428,11.23242-.43811,10.09924,3.52539,8.61041,11.52222a19.08194,19.08194,0,0,1-.91827,2.693,36.01862,36.01862,0,0,1-10.40594,15.82758,74.71567,74.71567,0,0,1-15.11523,14.528q-6.08871,5.41415-12.17706,10.82843c-5.84668,5.27081-11.89581,11.02045-17.23065,16.76917-17.93567,19.32715-18.42383,43.02454-1.12885,62.99445,5.59412,6.45929,11.828,12.36444,17.76929,18.52307a67.53827,67.53827,0,0,1,12.13861,10.4986c6.07642,5.02765,12.02521,10.17853,16.99237,16.1792a57.31512,57.31512,0,0,1,7.76489,12.0188c.91,1.91937,1.90753,2.58667,3.42749,2.64984,85.27325-13.69769,150.42065-87.59821,150.42065-176.73352,0-98.87482-79.34918-178.895-178.224-178.895V19.71511c90.01807,0,162.18738,72.84027,162.18738,162.85834A163.03919,163.03919,0,0,1,215.723,341.72671a5.54071,5.54071,0,0,1-2.36829-2.16284c-5.5567-8.28516-13.02087-14.79877-20.19916-21.57422-4.07935-3.6347-8.96814-6.365-12.20984-10.93457l-15.15548-15.35153c-11.15754-10.55021-10.99229-17.20829-11.42068-21.18089-.58565-5.43094.74375-8.01432,7.28257-7.80473,15.18671.48682,30.34326-.01828,45.54663-.04818-1.22308-7.13062-4.88438-11.36748-9.281-15.88768H164.9269" transform="translate(-2.46015 -3.67849)"/><path class="cls-3" d="M181.36894,230.68861s1.18837.9598,3.47991,2.68048a45.32313,45.32313,0,0,1,3.54724,3.14445c.86938.81782,3.57448,3.56035,4.41144,4.49391,2.36445,2.63733,3.1864,3.56058,4.96712,5.67053,4.39655,4.5202,7.73967,9.1655,9.38735,15.88729a16.3934,16.3934,0,0,1,1.02189,6.87559c.10419,4.54327-1.61475,6.6582-6.72021,6.56152-15.32794-.29016-30.94107.00315-46.275.0322,1.33424,5.57546,5.28284,10.49256,10.60132,15.6664,10.13641,0,19.76242-.01532,30.9343-.01532a86.48255,86.48255,0,0,1-15.709,15.55872c-12.20984,10.93457-8.13049,7.29987-12.20984,10.93457-7.17828,6.77545-14.64246,13.28906-20.19916,21.57422A5.54071,5.54071,0,0,1,146.238,341.916,163.03919,163.03919,0,0,1,18.49677,182.76275c0-90.01807,73.24212-162.99213,163.26018-162.99213V3.734c-98.87482,0-179.2968,80.15393-179.2968,179.02875,0,89.13531,65.1474,163.03583,150.42065,176.73352,1.52-.06317,2.51752-.73047,3.42749-2.64984a57.31511,57.31511,0,0,1,7.76489-12.0188c4.96716-6.00067,10.916-11.15155,16.99237-16.1792,3.68158-3.92114,0,0,12.13861-10.4986,5.94128-6.15863,12.17517-12.06378,17.76929-18.52307,17.295-19.96991,16.80682-43.6673-1.12885-62.99445-5.33484-5.74872-10.55636-10.81327-16.0494-16.41514" transform="translate(-2.46015 -3.67849)"/><path class="cls-4" d="M181.59906,32.642" transform="translate(-2.46015 -3.67849)"/><path class="cls-3" d="M127.72341,86.28326a53.78405,53.78405,0,0,0,53.92578,53.64124V32.642A53.78405,53.78405,0,0,0,127.72341,86.28326Z" transform="translate(-2.46015 -3.67849)"/><path class="cls-2" d="M235.575,86.28326a53.78405,53.78405,0,0,1-53.92578,53.64124V32.642A53.78405,53.78405,0,0,1,235.575,86.28326Z" transform="translate(-2.46015 -3.67849)"/></svg>